# xmcd
#
# Track frame offsets:
# 150
# 16632
# 29592
# 39460
# 52639
# 68475
# 83170
# 97320
# 114927
# 124995
# 139030
#
# Disc length: 2073 seconds
#
#
# Revision: 2
# Processed by: cddbd v1.4PL0 Copyright (c) Steve Scherf et al.
# Submitted via: FreeRIP 2.35 
#
DISCID=8508170b
DTITLE=R. L. Burnside - Acoustic Stories
DYEAR=1997
DGENRE=Blues
TTITLE0=When My First Wife Left Me
TTITLE1=Death Bell Blues
TTITLE2=Skinny Woman
TTITLE3=Monkey In The Pool Room
TTITLE4=Hobo Blues
TTITLE5=Walking Blues
TTITLE6=Long Haired Doney
TTITLE7=Poor Black Mattie
TTITLE8=Meet Me In The Bottom
TTITLE9=Miss Glory B
TTITLE10=Kindhearted Woman Blues
EXTD=
EXTT0=
EXTT1=
EXTT2=
EXTT3=
EXTT4=
EXTT5=
EXTT6=
EXTT7=
EXTT8=
EXTT9=
EXTT10=
PLAYORDER=
